<svg width="7" height="22" viewBox="0 0 7 22" fill="none" xmlns="http://www.w3.org/2000/svg">
<path d="M6.112 3.45176C6.112 5.07029 4.829 6.38356 3.252 6.38356C1.675 6.38356 0.389999 5.06927 0.389999 3.45381C0.389999 1.83834 1.673 0.522001 3.25 0.522001C4.827 0.522001 6.112 1.83732 6.112 3.45176ZM1.889 3.45176C1.889 4.22005 2.499 4.84698 3.249 4.84698C3.999 4.84698 4.609 4.2221 4.609 3.45381C4.609 2.68551 3.999 2.05859 3.249 2.05859C2.499 2.05859 1.889 2.68347 1.889 3.45176ZM6.112 11.022C6.112 12.6385 4.829 13.9518 3.252 13.9518C1.675 13.9518 0.388 12.6405 0.388 11.022C0.388 9.40346 1.67 8.09224 3.248 8.09224C4.826 8.09224 6.11 9.40551 6.11 11.022H6.112ZM1.889 11.022C1.889 11.7903 2.499 12.4152 3.249 12.4152C3.999 12.4152 4.611 11.7903 4.611 11.022C4.611 10.2537 4.001 9.62883 3.251 9.62883C2.501 9.62883 1.888 10.2537 1.888 11.022H1.889ZM6.112 18.5922C6.112 20.2077 4.829 21.522 3.252 21.522C1.675 21.522 0.389999 20.2067 0.389999 18.5922C0.389999 16.9778 1.673 15.6604 3.25 15.6604C4.827 15.6604 6.112 16.9747 6.112 18.5902V18.5922ZM1.889 18.5922C1.889 19.3605 2.499 19.9854 3.249 19.9854C3.999 19.9854 4.609 19.3605 4.609 18.5922C4.609 17.824 3.999 17.197 3.249 17.197C2.499 17.197 1.889 17.8219 1.889 18.5902V18.5922Z" fill="#1DA1F2"/>
</svg>
